<svg xmlns="http://www.w3.org/2000/svg" xmlns:xlink="http://www.w3.org/1999/xlink" width="500" zoomAndPan="magnify" viewBox="0 0 375 374.999991" height="500" preserveAspectRatio="xMidYMid meet" version="1.0"><rect x="-37.5" width="450" fill="#ffffff" y="-37.499999" height="449.999989" fill-opacity="1"/><rect x="-37.5" width="450" fill="#ffffff" y="-37.499999" height="449.999989" fill-opacity="1"/><rect x="-37.5" width="450" fill="#ffffff" y="-37.499999" height="449.999989" fill-opacity="1"/><path fill="#c38edc" d="M 378.199219 188.601562 C 378.199219 191.6875 378.121094 194.773438 377.972656 197.855469 C 377.820312 200.941406 377.59375 204.015625 377.289062 207.089844 C 376.988281 210.160156 376.609375 213.222656 376.15625 216.277344 C 375.703125 219.332031 375.175781 222.371094 374.574219 225.398438 C 373.972656 228.425781 373.296875 231.4375 372.546875 234.429688 C 371.796875 237.425781 370.972656 240.398438 370.078125 243.351562 C 369.183594 246.308594 368.214844 249.238281 367.175781 252.144531 C 366.136719 255.050781 365.023438 257.929688 363.84375 260.78125 C 362.664062 263.632812 361.414062 266.453125 360.09375 269.242188 C 358.773438 272.035156 357.386719 274.789062 355.929688 277.511719 C 354.476562 280.234375 352.957031 282.917969 351.371094 285.566406 C 349.78125 288.214844 348.132812 290.820312 346.417969 293.390625 C 344.703125 295.957031 342.925781 298.476562 341.085938 300.957031 C 339.25 303.4375 337.351562 305.871094 335.394531 308.253906 C 333.433594 310.640625 331.421875 312.976562 329.347656 315.265625 C 327.273438 317.550781 325.148438 319.789062 322.964844 321.96875 C 320.785156 324.152344 318.546875 326.28125 316.261719 328.355469 C 313.976562 330.425781 311.640625 332.441406 309.253906 334.398438 C 306.867188 336.359375 304.433594 338.257812 301.957031 340.097656 C 299.476562 341.933594 296.957031 343.710938 294.390625 345.425781 C 291.824219 347.140625 289.214844 348.792969 286.570312 350.378906 C 283.921875 351.964844 281.238281 353.488281 278.515625 354.941406 C 275.792969 356.398438 273.039062 357.785156 270.25 359.105469 C 267.457031 360.425781 264.636719 361.675781 261.785156 362.855469 C 258.933594 364.035156 256.058594 365.148438 253.152344 366.1875 C 250.246094 367.226562 247.316406 368.195312 244.363281 369.089844 C 241.410156 369.988281 238.433594 370.808594 235.441406 371.558594 C 232.449219 372.308594 229.4375 372.988281 226.410156 373.589844 C 223.382812 374.191406 220.34375 374.71875 217.292969 375.171875 C 214.238281 375.625 211.175781 376.003906 208.105469 376.304688 C 205.035156 376.605469 201.957031 376.835938 198.875 376.984375 C 195.792969 377.136719 192.707031 377.214844 189.621094 377.214844 C 186.535156 377.214844 183.449219 377.136719 180.367188 376.984375 C 177.285156 376.835938 174.207031 376.605469 171.136719 376.304688 C 168.066406 376.003906 165.003906 375.625 161.949219 375.171875 C 158.898438 374.71875 155.859375 374.191406 152.832031 373.589844 C 149.804688 372.988281 146.792969 372.308594 143.800781 371.558594 C 140.808594 370.808594 137.832031 369.988281 134.878906 369.089844 C 131.925781 368.195312 128.996094 367.226562 126.089844 366.1875 C 123.183594 365.148438 120.308594 364.035156 117.457031 362.855469 C 114.605469 361.675781 111.785156 360.425781 108.992188 359.105469 C 106.203125 357.785156 103.449219 356.398438 100.726562 354.941406 C 98.003906 353.488281 95.320312 351.964844 92.671875 350.378906 C 90.027344 348.792969 87.417969 347.140625 84.851562 345.425781 C 82.285156 343.710938 79.765625 341.933594 77.285156 340.097656 C 74.808594 338.257812 72.375 336.359375 69.988281 334.398438 C 67.601562 332.441406 65.265625 330.425781 62.980469 328.355469 C 60.695312 326.28125 58.460938 324.152344 56.277344 321.96875 C 54.09375 319.789062 51.96875 317.550781 49.894531 315.265625 C 47.820312 312.976562 45.808594 310.640625 43.847656 308.253906 C 41.890625 305.871094 39.992188 303.4375 38.15625 300.957031 C 36.316406 298.476562 34.539062 295.957031 32.824219 293.390625 C 31.109375 290.820312 29.460938 288.214844 27.871094 285.566406 C 26.285156 282.917969 24.765625 280.234375 23.3125 277.511719 C 21.855469 274.789062 20.46875 272.035156 19.148438 269.242188 C 17.828125 266.453125 16.578125 263.632812 15.398438 260.78125 C 14.21875 257.929688 13.105469 255.050781 12.066406 252.144531 C 11.027344 249.238281 10.058594 246.308594 9.164062 243.351562 C 8.269531 240.398438 7.445312 237.425781 6.695312 234.429688 C 5.945312 231.4375 5.269531 228.425781 4.667969 225.398438 C 4.066406 222.371094 3.539062 219.332031 3.085938 216.277344 C 2.632812 213.222656 2.253906 210.160156 1.953125 207.089844 C 1.648438 204.015625 1.421875 200.941406 1.269531 197.855469 C 1.121094 194.773438 1.042969 191.6875 1.042969 188.601562 C 1.042969 185.515625 1.121094 182.429688 1.269531 179.347656 C 1.421875 176.265625 1.648438 173.1875 1.953125 170.113281 C 2.253906 167.042969 2.632812 163.980469 3.085938 160.925781 C 3.539062 157.875 4.066406 154.832031 4.667969 151.804688 C 5.269531 148.777344 5.945312 145.769531 6.695312 142.773438 C 7.445312 139.777344 8.269531 136.804688 9.164062 133.851562 C 10.058594 130.898438 11.027344 127.96875 12.066406 125.0625 C 13.105469 122.15625 14.21875 119.277344 15.398438 116.425781 C 16.578125 113.570312 17.828125 110.75 19.148438 107.960938 C 20.46875 105.171875 21.855469 102.414062 23.3125 99.691406 C 24.765625 96.96875 26.285156 94.285156 27.871094 91.636719 C 29.460938 88.988281 31.109375 86.382812 32.824219 83.816406 C 34.539062 81.25 36.316406 78.726562 38.15625 76.246094 C 39.992188 73.769531 41.890625 71.335938 43.847656 68.949219 C 45.808594 66.5625 47.820312 64.226562 49.894531 61.9375 C 51.96875 59.652344 54.09375 57.417969 56.277344 55.234375 C 58.460938 53.050781 60.695312 50.921875 62.980469 48.851562 C 65.265625 46.777344 67.601562 44.761719 69.988281 42.804688 C 72.375 40.847656 74.808594 38.949219 77.285156 37.109375 C 79.765625 35.269531 82.285156 33.492188 84.851562 31.777344 C 87.417969 30.0625 90.027344 28.414062 92.671875 26.824219 C 95.320312 25.238281 98.003906 23.71875 100.726562 22.261719 C 103.449219 20.808594 106.203125 19.417969 108.992188 18.101562 C 111.785156 16.78125 114.605469 15.53125 117.457031 14.347656 C 120.308594 13.167969 123.183594 12.058594 126.089844 11.015625 C 128.996094 9.976562 131.925781 9.007812 134.878906 8.113281 C 137.832031 7.21875 140.808594 6.394531 143.800781 5.644531 C 146.792969 4.894531 149.804688 4.21875 152.832031 3.617188 C 155.859375 3.011719 158.898438 2.484375 161.949219 2.03125 C 165.003906 1.578125 168.066406 1.203125 171.136719 0.898438 C 174.207031 0.597656 177.285156 0.371094 180.367188 0.21875 C 183.449219 0.0664062 186.535156 -0.0078125 189.621094 -0.0078125 C 192.707031 -0.0078125 195.792969 0.0664062 198.875 0.21875 C 201.957031 0.371094 205.035156 0.597656 208.105469 0.898438 C 211.175781 1.203125 214.238281 1.578125 217.292969 2.03125 C 220.34375 2.484375 223.382812 3.011719 226.410156 3.617188 C 229.4375 4.21875 232.449219 4.894531 235.441406 5.644531 C 238.433594 6.394531 241.410156 7.21875 244.363281 8.113281 C 247.316406 9.007812 250.246094 9.976562 253.152344 11.015625 C 256.058594 12.058594 258.933594 13.167969 261.785156 14.347656 C 264.636719 15.53125 267.457031 16.78125 270.25 18.101562 C 273.039062 19.417969 275.792969 20.808594 278.515625 22.261719 C 281.238281 23.71875 283.921875 25.238281 286.570312 26.824219 C 289.214844 28.414062 291.824219 30.0625 294.390625 31.777344 C 296.957031 33.492188 299.476562 35.269531 301.957031 37.109375 C 304.433594 38.949219 306.867188 40.847656 309.253906 42.804688 C 311.640625 44.761719 313.976562 46.777344 316.261719 48.851562 C 318.546875 50.921875 320.785156 53.050781 322.964844 55.234375 C 325.148438 57.417969 327.273438 59.652344 329.347656 61.9375 C 331.421875 64.226562 333.433594 66.5625 335.394531 68.949219 C 337.351562 71.335938 339.25 73.769531 341.089844 76.246094 C 342.925781 78.726562 344.703125 81.25 346.417969 83.816406 C 348.132812 86.382812 349.78125 88.988281 351.371094 91.636719 C 352.957031 94.285156 354.476562 96.96875 355.929688 99.691406 C 357.386719 102.414062 358.773438 105.171875 360.09375 107.960938 C 361.414062 110.75 362.664062 113.570312 363.84375 116.425781 C 365.023438 119.277344 366.136719 122.15625 367.175781 125.0625 C 368.214844 127.96875 369.183594 130.898438 370.078125 133.851562 C 370.972656 136.804688 371.796875 139.78125 372.546875 142.773438 C 373.296875 145.769531 373.972656 148.777344 374.574219 151.804688 C 375.175781 154.832031 375.703125 157.875 376.15625 160.925781 C 376.609375 163.980469 376.988281 167.042969 377.289062 170.113281 C 377.59375 173.1875 377.820312 176.265625 377.972656 179.347656 C 378.121094 182.429688 378.199219 185.515625 378.199219 188.601562 Z M 378.199219 188.601562 " fill-opacity="1" fill-rule="nonzero"/><path fill="#ffffff" d="M 156.203125 172.335938 C 155.855469 168.097656 148.960938 85.140625 146.664062 71.585938 L 146.625 71.234375 C 146.480469 66.980469 148.652344 61.992188 151.964844 58.71875 C 154.355469 56.355469 157.316406 54.898438 160.335938 54.925781 C 164.964844 54.972656 170.40625 58.585938 173.820312 69.96875 C 173.851562 70.078125 173.878906 70.191406 173.894531 70.304688 C 173.894531 70.304688 186.992188 152.003906 187 154.222656 C 187.011719 156.660156 188.039062 159.125 189.394531 160.625 C 189.683594 160.9375 189.980469 161.203125 190.289062 161.394531 C 190.464844 161.503906 190.617188 161.628906 190.785156 161.601562 C 190.871094 161.589844 190.921875 161.503906 190.992188 161.421875 C 191.199219 161.195312 191.378906 160.890625 191.546875 160.515625 C 192.207031 159.082031 192.621094 156.898438 192.757812 153.796875 C 192.757812 153.773438 192.757812 153.75 192.761719 153.726562 L 199.269531 61.378906 L 199.277344 61.304688 C 199.714844 56.890625 202.5 52.804688 206.050781 50.503906 C 208.582031 48.863281 211.480469 48.140625 214.195312 48.632812 C 218.433594 49.410156 222.722656 53.230469 223.828125 62.703125 C 223.839844 62.808594 223.847656 62.914062 223.84375 63.019531 C 223.84375 63.019531 223.488281 143.417969 222.949219 156.097656 L 222.929688 156.347656 C 222.5625 158.964844 223.261719 161.933594 224.453125 163.976562 C 224.785156 164.539062 225.148438 165.027344 225.550781 165.378906 C 225.726562 165.535156 225.894531 165.683594 226.089844 165.707031 C 226.191406 165.726562 226.261719 165.625 226.367188 165.539062 C 226.550781 165.382812 226.730469 165.179688 226.910156 164.9375 C 227.839844 163.671875 228.652344 161.574219 229.363281 158.445312 C 229.371094 158.421875 229.375 158.40625 229.382812 158.382812 C 229.382812 158.382812 246.855469 89.160156 246.839844 89.21875 C 248.136719 83.53125 251.773438 79.007812 255.761719 76.824219 C 258.800781 75.160156 262.054688 74.820312 264.847656 75.984375 C 268.957031 77.699219 272.621094 83.167969 271.90625 94.5625 C 271.902344 94.65625 271.890625 94.746094 271.875 94.839844 C 271.875 94.839844 265.195312 134.027344 263.652344 144.140625 C 263.644531 144.183594 263.636719 144.226562 263.628906 144.269531 C 263.628906 144.269531 256.527344 179.148438 256.113281 184.574219 C 256.007812 185.921875 256.476562 187.417969 257.285156 188.472656 C 257.652344 188.953125 258.078125 189.371094 258.609375 189.46875 C 259.09375 189.558594 259.589844 189.296875 260.144531 188.820312 C 260.832031 188.230469 261.511719 187.351562 262.207031 186.144531 C 267.683594 176.589844 288.261719 152.257812 292.351562 146.023438 C 294.585938 142.625 298.527344 140.273438 302.1875 139.828125 C 305.023438 139.484375 307.683594 140.234375 309.558594 142.179688 C 312.125 144.84375 313.457031 150.480469 309.679688 160.234375 C 309.644531 160.316406 309.609375 160.398438 309.570312 160.476562 C 309.570312 160.476562 291.460938 195.964844 282.84375 211.484375 C 280.878906 215.023438 279.316406 217.578125 278.507812 218.65625 C 270.835938 231.636719 266.261719 258.589844 258.199219 281.277344 C 252.527344 297.222656 245.078125 311.058594 234.152344 317.304688 C 214.535156 328.511719 173.074219 338.984375 148.035156 309.867188 C 147.996094 309.824219 147.960938 309.773438 147.921875 309.726562 C 147.921875 309.726562 114.246094 264.496094 109.5 246.832031 C 108.542969 244.480469 96.820312 215.6875 94.289062 206.957031 C 94.28125 206.941406 94.28125 206.925781 94.273438 206.910156 C 94.273438 206.910156 88.601562 185.785156 71.125 174.613281 C 68.273438 173.070312 66.765625 169.574219 67.328125 165.816406 C 68.382812 158.773438 77.433594 149.542969 97.914062 160.816406 C 97.929688 160.820312 97.9375 160.828125 97.953125 160.835938 C 97.953125 160.835938 111.667969 168.511719 127.738281 198.371094 C 127.738281 198.375 127.738281 198.375 127.738281 198.375 C 127.738281 198.375 129.871094 202.328125 133.546875 205.828125 C 135.855469 208.027344 138.785156 210.085938 142.238281 210.667969 C 142.453125 210.703125 142.664062 210.765625 142.863281 210.855469 C 142.863281 210.855469 142.878906 210.863281 142.910156 210.875 C 143.3125 211.042969 145.347656 211.488281 147.613281 209.113281 C 151.417969 205.121094 155.175781 195.3125 156.203125 172.335938 Z M 168.722656 71.324219 C 167.433594 67.074219 165.917969 64.152344 164.242188 62.3125 C 162.953125 60.894531 161.621094 60.210938 160.285156 60.199219 C 158.59375 60.179688 157.003906 61.144531 155.667969 62.464844 C 153.421875 64.6875 151.84375 68.007812 151.890625 70.90625 C 154.296875 85.511719 161.46875 172.070312 161.46875 172.070312 L 161.476562 172.40625 C 160.59375 192.433594 157.488281 203.199219 154.210938 208.933594 C 151.257812 214.09375 147.980469 215.691406 145.574219 216.152344 C 143.433594 216.5625 141.773438 216.089844 141.039062 215.804688 C 136.65625 214.980469 132.867188 212.457031 129.914062 209.648438 C 125.589844 205.53125 123.097656 200.871094 123.097656 200.871094 C 107.996094 172.808594 95.335938 165.410156 95.371094 165.433594 C 88.433594 161.609375 83.15625 160.4375 79.285156 160.921875 C 76.121094 161.316406 74.078125 162.886719 73.121094 164.785156 C 72.542969 165.929688 72.351562 167.164062 72.558594 168.238281 C 72.703125 168.992188 73.03125 169.675781 73.667969 170 L 73.882812 170.125 C 93.097656 182.351562 99.363281 205.539062 99.351562 205.488281 C 101.953125 214.476562 114.441406 244.992188 114.441406 244.992188 L 114.554688 245.324219 C 118.882812 261.960938 150.527344 304.414062 152.085938 306.492188 C 175.199219 333.277344 213.453125 323.0625 231.539062 312.726562 C 241.542969 307.007812 248.042969 294.117188 253.230469 279.511719 C 261.441406 256.421875 266.210938 229.019531 274.03125 215.875 C 274.152344 215.675781 274.296875 215.492188 274.464844 215.328125 C 274.953125 214.859375 276.289062 212.433594 278.238281 208.925781 C 286.527344 193.996094 303.625 160.53125 304.808594 158.210938 C 306.222656 154.542969 306.835938 151.652344 306.820312 149.417969 C 306.808594 147.769531 306.476562 146.578125 305.761719 145.835938 C 305.027344 145.074219 303.9375 144.925781 302.824219 145.0625 C 300.558594 145.335938 298.136719 146.8125 296.757812 148.914062 C 292.691406 155.109375 272.21875 179.273438 266.777344 188.765625 C 263.753906 194.035156 260.292969 195.136719 257.660156 194.652344 C 255.90625 194.332031 254.308594 193.253906 253.097656 191.675781 C 251.546875 189.640625 250.660156 186.765625 250.859375 184.175781 C 251.269531 178.792969 258.125 144.902344 258.453125 143.277344 C 259.960938 133.410156 266.210938 96.730469 266.65625 94.105469 C 266.914062 89.816406 266.523438 86.585938 265.632812 84.269531 C 264.949219 82.496094 264.007812 81.347656 262.816406 80.847656 C 261.417969 80.265625 259.8125 80.613281 258.292969 81.449219 C 255.433594 83.015625 252.90625 86.3125 251.976562 90.394531 C 251.96875 90.410156 251.96875 90.429688 251.960938 90.453125 C 251.960938 90.453125 234.488281 159.675781 234.503906 159.613281 C 233.355469 164.65625 231.769531 167.609375 230.234375 169.132812 C 228.636719 170.722656 226.933594 171.15625 225.339844 170.925781 C 223.777344 170.699219 222.199219 169.730469 220.894531 168.089844 C 218.632812 165.242188 217.125 160.1875 217.691406 155.78125 C 218.214844 143.167969 218.558594 67.226562 218.578125 63.167969 C 217.855469 57.214844 215.9375 54.308594 213.25 53.816406 C 211.796875 53.554688 210.269531 54.050781 208.914062 54.925781 C 206.640625 56.398438 204.8125 58.980469 204.527344 61.800781 L 198.019531 154.070312 C 197.796875 158.980469 196.84375 162.101562 195.6875 163.914062 C 194.511719 165.765625 193.035156 166.59375 191.574219 166.8125 C 189.988281 167.054688 188.269531 166.550781 186.703125 165.300781 C 184.054688 163.195312 181.753906 158.714844 181.734375 154.246094 C 181.722656 152.109375 169.40625 75.5625 168.722656 71.324219 Z M 168.722656 71.324219 " fill-opacity="1" fill-rule="evenodd"/></svg>