<svg xmlns="http://www.w3.org/2000/svg" xmlns:xlink="http://www.w3.org/1999/xlink" width="500" zoomAndPan="magnify" viewBox="0 0 375 374.999991" height="500" preserveAspectRatio="xMidYMid meet" version="1.0"><defs><clipPath id="022081ba66"><path d="M 0 1.09375 L 374 1.09375 L 374 374 L 0 374 Z M 0 1.09375 " clip-rule="nonzero"/></clipPath></defs><g clip-path="url(#022081ba66)"><path fill="#f083a2" d="M 373.167969 187.226562 C 373.167969 190.273438 373.09375 193.320312 372.941406 196.363281 C 372.792969 199.40625 372.570312 202.441406 372.269531 205.472656 C 371.972656 208.503906 371.597656 211.527344 371.152344 214.542969 C 370.707031 217.554688 370.183594 220.554688 369.589844 223.542969 C 368.996094 226.53125 368.328125 229.503906 367.589844 232.457031 C 366.851562 235.414062 366.039062 238.347656 365.152344 241.261719 C 364.269531 244.179688 363.316406 247.070312 362.289062 249.9375 C 361.261719 252.804688 360.167969 255.648438 359 258.460938 C 357.835938 261.277344 356.601562 264.0625 355.300781 266.816406 C 353.996094 269.570312 352.628906 272.289062 351.191406 274.976562 C 349.757812 277.664062 348.257812 280.3125 346.691406 282.925781 C 345.125 285.539062 343.496094 288.109375 341.804688 290.644531 C 340.113281 293.175781 338.359375 295.667969 336.542969 298.113281 C 334.730469 300.5625 332.855469 302.960938 330.925781 305.316406 C 328.992188 307.671875 327.003906 309.976562 324.960938 312.234375 C 322.914062 314.492188 320.8125 316.699219 318.660156 318.851562 C 316.507812 321.003906 314.300781 323.105469 312.046875 325.152344 C 309.789062 327.199219 307.484375 329.1875 305.128906 331.117188 C 302.773438 333.050781 300.375 334.925781 297.929688 336.738281 C 295.480469 338.554688 292.992188 340.308594 290.460938 342 C 287.929688 343.691406 285.355469 345.324219 282.742188 346.890625 C 280.132812 348.453125 277.480469 349.957031 274.796875 351.390625 C 272.109375 352.828125 269.390625 354.199219 266.636719 355.5 C 263.882812 356.800781 261.101562 358.035156 258.289062 359.203125 C 255.472656 360.367188 252.632812 361.464844 249.765625 362.492188 C 246.898438 363.515625 244.007812 364.472656 241.09375 365.355469 C 238.175781 366.242188 235.242188 367.054688 232.289062 367.792969 C 229.335938 368.535156 226.363281 369.199219 223.375 369.796875 C 220.390625 370.390625 217.390625 370.910156 214.378906 371.355469 C 211.363281 371.804688 208.34375 372.175781 205.3125 372.476562 C 202.28125 372.773438 199.246094 372.996094 196.203125 373.148438 C 193.160156 373.296875 190.117188 373.371094 187.070312 373.371094 C 184.027344 373.371094 180.980469 373.296875 177.941406 373.148438 C 174.898438 372.996094 171.863281 372.773438 168.832031 372.476562 C 165.800781 372.175781 162.777344 371.804688 159.765625 371.355469 C 156.753906 370.910156 153.753906 370.390625 150.765625 369.796875 C 147.777344 369.199219 144.808594 368.535156 141.855469 367.792969 C 138.898438 367.054688 135.964844 366.242188 133.050781 365.355469 C 130.136719 364.472656 127.246094 363.515625 124.378906 362.492188 C 121.511719 361.464844 118.667969 360.367188 115.855469 359.203125 C 113.042969 358.035156 110.257812 356.800781 107.503906 355.5 C 104.753906 354.199219 102.03125 352.828125 99.347656 351.390625 C 96.660156 349.957031 94.011719 348.453125 91.398438 346.890625 C 88.789062 345.324219 86.214844 343.691406 83.683594 342 C 81.148438 340.308594 78.660156 338.554688 76.214844 336.738281 C 73.769531 334.925781 71.367188 333.050781 69.015625 331.117188 C 66.660156 329.1875 64.355469 327.199219 62.097656 325.152344 C 59.839844 323.105469 57.636719 321.003906 55.480469 318.851562 C 53.328125 316.699219 51.230469 314.492188 49.183594 312.234375 C 47.140625 309.976562 45.148438 307.671875 43.21875 305.316406 C 41.285156 302.960938 39.414062 300.5625 37.597656 298.113281 C 35.785156 295.667969 34.03125 293.175781 32.339844 290.644531 C 30.648438 288.109375 29.019531 285.539062 27.453125 282.925781 C 25.886719 280.3125 24.386719 277.664062 22.949219 274.976562 C 21.515625 272.289062 20.144531 269.570312 18.84375 266.816406 C 17.542969 264.0625 16.308594 261.277344 15.140625 258.460938 C 13.976562 255.648438 12.878906 252.804688 11.855469 249.9375 C 10.828125 247.070312 9.875 244.179688 8.988281 241.261719 C 8.105469 238.347656 7.292969 235.414062 6.554688 232.457031 C 5.8125 229.503906 5.144531 226.53125 4.550781 223.542969 C 3.957031 220.554688 3.4375 217.554688 2.992188 214.542969 C 2.542969 211.527344 2.171875 208.503906 1.871094 205.472656 C 1.574219 202.441406 1.351562 199.40625 1.199219 196.363281 C 1.050781 193.320312 0.976562 190.273438 0.976562 187.226562 C 0.976562 184.183594 1.050781 181.136719 1.199219 178.09375 C 1.351562 175.050781 1.574219 172.015625 1.871094 168.984375 C 2.171875 165.953125 2.542969 162.929688 2.992188 159.914062 C 3.4375 156.902344 3.957031 153.902344 4.550781 150.914062 C 5.144531 147.925781 5.8125 144.953125 6.554688 142 C 7.292969 139.042969 8.105469 136.109375 8.988281 133.195312 C 9.875 130.277344 10.828125 127.386719 11.855469 124.519531 C 12.878906 121.648438 13.976562 118.808594 15.140625 115.996094 C 16.308594 113.179688 17.542969 110.394531 18.84375 107.640625 C 20.144531 104.886719 21.515625 102.167969 22.949219 99.480469 C 24.386719 96.792969 25.886719 94.144531 27.453125 91.53125 C 29.019531 88.917969 30.648438 86.34375 32.339844 83.8125 C 34.03125 81.28125 35.785156 78.789062 37.597656 76.34375 C 39.414062 73.894531 41.285156 71.496094 43.21875 69.140625 C 45.148438 66.785156 47.140625 64.480469 49.183594 62.222656 C 51.230469 59.964844 53.328125 57.757812 55.480469 55.605469 C 57.636719 53.449219 59.839844 51.351562 62.097656 49.304688 C 64.355469 47.257812 66.660156 45.269531 69.015625 43.335938 C 71.367188 41.40625 73.769531 39.53125 76.214844 37.714844 C 78.660156 35.902344 81.148438 34.148438 83.683594 32.457031 C 86.214844 30.761719 88.789062 29.132812 91.398438 27.566406 C 94.011719 26 96.660156 24.5 99.347656 23.0625 C 102.03125 21.628906 104.753906 20.257812 107.503906 18.957031 C 110.257812 17.652344 113.042969 16.417969 115.855469 15.253906 C 118.667969 14.089844 121.511719 12.992188 124.378906 11.964844 C 127.246094 10.941406 130.136719 9.984375 133.050781 9.101562 C 135.964844 8.214844 138.898438 7.402344 141.855469 6.664062 C 144.808594 5.921875 147.777344 5.253906 150.765625 4.660156 C 153.753906 4.066406 156.753906 3.546875 159.765625 3.097656 C 162.777344 2.652344 165.800781 2.28125 168.832031 1.980469 C 171.863281 1.683594 174.898438 1.457031 177.941406 1.308594 C 180.980469 1.160156 184.027344 1.085938 187.070312 1.085938 C 190.117188 1.085938 193.160156 1.160156 196.203125 1.308594 C 199.246094 1.457031 202.28125 1.683594 205.3125 1.980469 C 208.34375 2.28125 211.363281 2.652344 214.378906 3.097656 C 217.390625 3.546875 220.390625 4.066406 223.375 4.660156 C 226.363281 5.253906 229.335938 5.921875 232.289062 6.664062 C 235.242188 7.402344 238.175781 8.214844 241.09375 9.101562 C 244.007812 9.984375 246.898438 10.941406 249.765625 11.964844 C 252.632812 12.992188 255.472656 14.089844 258.285156 15.253906 C 261.101562 16.417969 263.882812 17.652344 266.636719 18.957031 C 269.390625 20.257812 272.109375 21.628906 274.796875 23.0625 C 277.480469 24.5 280.132812 26 282.742188 27.566406 C 285.355469 29.132812 287.929688 30.761719 290.460938 32.457031 C 292.992188 34.148438 295.480469 35.902344 297.929688 37.714844 C 300.375 39.53125 302.773438 41.40625 305.128906 43.335938 C 307.484375 45.269531 309.789062 47.257812 312.046875 49.304688 C 314.300781 51.351562 316.507812 53.449219 318.660156 55.605469 C 320.8125 57.757812 322.914062 59.964844 324.960938 62.222656 C 327.003906 64.480469 328.992188 66.785156 330.925781 69.140625 C 332.855469 71.496094 334.730469 73.894531 336.542969 76.34375 C 338.359375 78.789062 340.113281 81.28125 341.804688 83.8125 C 343.496094 86.34375 345.125 88.917969 346.691406 91.53125 C 348.257812 94.144531 349.757812 96.792969 351.191406 99.480469 C 352.628906 102.167969 353.996094 104.886719 355.300781 107.640625 C 356.601562 110.394531 357.835938 113.179688 359 115.996094 C 360.167969 118.808594 361.261719 121.648438 362.289062 124.519531 C 363.316406 127.386719 364.269531 130.277344 365.152344 133.195312 C 366.039062 136.109375 366.851562 139.042969 367.589844 142 C 368.328125 144.953125 368.996094 147.925781 369.589844 150.914062 C 370.183594 153.902344 370.707031 156.902344 371.152344 159.914062 C 371.597656 162.929688 371.972656 165.953125 372.269531 168.984375 C 372.570312 172.015625 372.792969 175.050781 372.941406 178.09375 C 373.09375 181.136719 373.167969 184.183594 373.167969 187.226562 Z M 373.167969 187.226562 " fill-opacity="1" fill-rule="nonzero"/></g><path fill="#ffffff" d="M 196.828125 91.855469 C 196.867188 91.792969 196.902344 91.726562 196.9375 91.664062 C 200.601562 85.144531 209.191406 75.632812 220.886719 75.535156 C 228.277344 75.46875 237.113281 79.101562 246.710938 90.222656 C 249.304688 90.085938 251.597656 90.335938 253.601562 90.777344 C 258.152344 91.785156 261.957031 94.316406 263.191406 95.203125 C 263.628906 95.328125 264.089844 95.589844 264.550781 96.066406 C 264.671875 96.195312 264.867188 96.414062 265.0625 96.78125 C 265.175781 97.003906 265.511719 97.859375 265.972656 99.257812 C 270.132812 111.90625 289.914062 178.25 289.914062 178.25 L 290.035156 179.070312 C 290.535156 230.84375 269.027344 273.007812 243.472656 298.5625 C 226.207031 315.828125 207.03125 325.5 191.40625 325.824219 C 160.160156 333.15625 125.550781 313.34375 108.847656 293.71875 C 96.761719 279.515625 81.933594 235.246094 84.351562 206.664062 C 86.277344 183.90625 85.253906 163.265625 87.882812 151.117188 C 89.238281 144.863281 91.691406 140.652344 95.304688 138.746094 C 102.046875 135.191406 107.132812 134.425781 111.230469 135.730469 C 111.917969 135.949219 112.582031 136.230469 113.230469 136.566406 C 113.125 133.683594 113.214844 130.292969 113.78125 126.914062 C 114.835938 120.625 117.570312 114.460938 123.25 111.101562 C 127.828125 108.394531 135.433594 105.804688 142.824219 106.214844 C 145.964844 106.390625 149.058594 107.09375 151.902344 108.507812 C 153.40625 91.933594 167.386719 86.394531 175.328125 85.566406 C 183.207031 84.746094 189.488281 86.097656 194.152344 89.5 C 195.109375 90.195312 196.003906 90.980469 196.828125 91.855469 Z M 136.421875 200.890625 C 136.226562 199.976562 136.066406 199.3125 135.988281 199.003906 C 126.421875 176.0625 121.734375 158.988281 116.558594 149.15625 C 114.40625 145.070312 112.332031 142.328125 109.425781 141.398438 C 106.480469 140.460938 102.921875 141.453125 98.078125 144.007812 C 96.644531 144.765625 95.695312 146.253906 94.917969 148.210938 C 93.914062 150.734375 93.277344 153.96875 92.828125 157.765625 C 91.375 170.039062 91.917969 187.828125 90.277344 207.164062 C 87.984375 234.300781 101.902344 276.375 113.378906 289.863281 C 128.960938 308.179688 161.199219 326.980469 190.335938 319.964844 L 190.992188 319.882812 C 205.496094 319.707031 223.191406 310.433594 239.269531 294.355469 C 263.835938 269.785156 284.453125 229.265625 284.089844 179.542969 C 282.433594 173.984375 264.285156 113.160156 260.320312 101.117188 C 260.222656 100.816406 260.125 100.523438 260.035156 100.265625 C 258.875 99.433594 256.324219 97.472656 252.316406 96.585938 C 247.769531 95.582031 241.40625 96.011719 233.132812 100.714844 C 211.929688 112.765625 185.542969 112.296875 173.398438 108.621094 C 172.78125 108.433594 172.265625 108.820312 171.804688 109.347656 C 170.816406 110.484375 170.160156 112.28125 169.871094 114.414062 C 168.207031 126.617188 178.914062 147.425781 222.933594 145.28125 C 223.699219 145.246094 224.445312 145.503906 225.023438 146.003906 C 225.023438 146.003906 243.371094 161.5 231.347656 191.167969 C 230.984375 192.066406 230.207031 192.730469 229.261719 192.949219 C 229.261719 192.949219 181.859375 204.03125 166.519531 255.058594 C 166.046875 256.632812 164.386719 257.523438 162.816406 257.050781 C 161.246094 256.578125 160.351562 254.917969 160.824219 253.34375 C 175.5 204.542969 217.742188 190.054688 226.367188 187.570312 C 234.199219 166.738281 224.757812 154.386719 221.902344 151.28125 C 215.8125 151.523438 210.3125 151.335938 205.355469 150.800781 L 211.355469 180.183594 C 212.054688 182.386719 211.847656 184.976562 210.753906 187.65625 C 209.359375 191.066406 206.484375 194.707031 202.824219 197.652344 C 197.25 202.140625 189.90625 204.917969 183.550781 203.417969 C 182.304688 203.125 181.089844 202.675781 179.921875 202.050781 C 179.386719 205.652344 177.394531 209.273438 174.371094 212.289062 C 168.484375 218.164062 158.863281 221.632812 150.40625 218.289062 C 148.054688 217.359375 145.761719 215.902344 143.667969 213.792969 C 143.621094 214.910156 143.515625 215.992188 143.339844 217.011719 C 142.5625 221.484375 140.375 224.78125 136.664062 225.75 C 134.6875 226.265625 132.125 226.132812 128.878906 224.808594 C 124.96875 223.207031 119.757812 219.730469 112.945312 213.515625 C 112.730469 213.316406 112.539062 213.085938 112.386719 212.832031 C 112.386719 212.832031 99.417969 190.875 94.144531 179.972656 C 93.429688 178.496094 94.046875 176.71875 95.527344 176 C 97 175.285156 98.78125 175.90625 99.496094 177.378906 C 104.292969 187.289062 115.535156 206.453125 117.28125 209.417969 C 122.25 213.921875 126.230469 216.835938 129.425781 218.5 C 131.949219 219.820312 133.777344 220.355469 135.160156 219.992188 C 136.007812 219.769531 136.492188 219.074219 136.851562 218.234375 C 137.46875 216.804688 137.699219 214.980469 137.753906 213.0625 C 137.878906 208.765625 137.074219 204.015625 136.492188 201.234375 C 136.464844 201.121094 136.4375 201.003906 136.421875 200.890625 Z M 171.945312 191.726562 C 166.488281 171.917969 154.125 122.9375 152.363281 115.949219 C 148.753906 112.691406 144.023438 111.867188 139.484375 112.183594 C 134.375 112.539062 129.453125 114.34375 126.28125 116.222656 C 122.144531 118.671875 120.414062 123.316406 119.644531 127.898438 C 118.5 134.726562 119.582031 141.613281 119.824219 142.984375 C 120.503906 144.015625 121.171875 145.148438 121.820312 146.382812 C 127.066406 156.34375 131.839844 173.648438 141.5625 196.921875 C 141.617188 197.050781 141.664062 197.183594 141.699219 197.320312 C 141.699219 197.320312 141.917969 198.183594 142.210938 199.601562 C 144.636719 206.960938 148.351562 211.078125 152.59375 212.753906 C 158.820312 215.21875 165.835938 212.402344 170.171875 208.082031 C 172.988281 205.265625 174.796875 201.777344 173.917969 198.570312 C 173.585938 197.527344 173.128906 195.957031 172.570312 193.96875 C 172.445312 193.710938 172.320312 193.449219 172.199219 193.183594 C 171.984375 192.710938 171.90625 192.210938 171.945312 191.726562 Z M 196.949219 104.863281 C 195.785156 100.074219 193.726562 96.550781 190.652344 94.308594 C 187.019531 91.65625 182.078125 90.84375 175.945312 91.484375 C 169.199219 92.1875 156.902344 97.3125 157.761719 113.207031 C 157.828125 113.351562 157.878906 113.503906 157.917969 113.664062 C 157.917969 113.664062 172.613281 172.066406 178.125 191.78125 C 179.4375 194.269531 181.050781 195.9375 182.898438 196.886719 C 187.988281 199.5 194.351562 196.839844 199.097656 193.019531 C 201.90625 190.761719 204.179688 188.023438 205.246094 185.40625 C 205.757812 184.152344 206.027344 182.957031 205.667969 181.941406 C 205.625 181.8125 205.589844 181.683594 205.558594 181.550781 L 199.101562 149.894531 C 169.316406 144.394531 162.429688 124.96875 163.980469 113.609375 C 164.558594 109.339844 166.351562 106.019531 168.527344 104.277344 C 170.46875 102.722656 172.742188 102.203125 175.121094 102.925781 C 180.230469 104.472656 188.074219 105.382812 196.949219 104.863281 Z M 239.757812 91.417969 C 232.042969 83.4375 225.1875 80.929688 219.304688 81.578125 C 212.785156 82.300781 207.722656 86.8125 204.492188 91.015625 C 202.96875 92.992188 201.851562 94.917969 201.199219 96.410156 C 200.992188 96.886719 200.808594 97.457031 200.738281 97.699219 C 201.652344 99.652344 202.382812 101.851562 202.921875 104.304688 C 211.910156 103.148438 221.523438 100.46875 230.195312 95.542969 C 233.652344 93.578125 236.835938 92.257812 239.757812 91.417969 Z M 265.148438 99.234375 C 265.160156 99.203125 265.171875 99.175781 265.183594 99.144531 C 265.195312 99.117188 265.203125 99.085938 265.214844 99.054688 Z M 261.214844 95.390625 C 260.816406 95.535156 260.480469 95.753906 260.207031 96.054688 C 259.929688 96.355469 259.714844 96.734375 259.5625 97.199219 C 259.914062 96.128906 260.613281 95.648438 261.214844 95.390625 Z M 261.214844 95.390625 " fill-opacity="1" fill-rule="evenodd"/></svg>