<svg xmlns="http://www.w3.org/2000/svg" xmlns:xlink="http://www.w3.org/1999/xlink" width="500" zoomAndPan="magnify" viewBox="0 0 375 374.999991" height="500" preserveAspectRatio="xMidYMid meet" version="1.0"><defs><clipPath id="3d258ac99f"><path d="M 1 0 L 373.5 0 L 373.5 372 L 1 372 Z M 1 0 " clip-rule="nonzero"/></clipPath></defs><g clip-path="url(#3d258ac99f)"><path fill="#7facff" d="M 373.355469 185.597656 C 373.355469 188.640625 373.28125 191.6875 373.132812 194.730469 C 372.980469 197.773438 372.757812 200.808594 372.460938 203.839844 C 372.160156 206.875 371.789062 209.894531 371.339844 212.910156 C 370.894531 215.921875 370.375 218.921875 369.78125 221.910156 C 369.1875 224.898438 368.519531 227.871094 367.777344 230.824219 C 367.039062 233.78125 366.226562 236.714844 365.34375 239.628906 C 364.460938 242.546875 363.503906 245.4375 362.476562 248.304688 C 361.453125 251.175781 360.355469 254.015625 359.191406 256.832031 C 358.027344 259.644531 356.792969 262.429688 355.492188 265.183594 C 354.1875 267.9375 352.820312 270.65625 351.382812 273.34375 C 349.949219 276.03125 348.449219 278.679688 346.882812 281.292969 C 345.316406 283.90625 343.6875 286.480469 341.996094 289.011719 C 340.304688 291.542969 338.550781 294.035156 336.738281 296.480469 C 334.921875 298.929688 333.050781 301.328125 331.117188 303.683594 C 329.1875 306.039062 327.199219 308.34375 325.152344 310.601562 C 323.109375 312.859375 321.007812 315.066406 318.855469 317.21875 C 316.703125 319.375 314.496094 321.472656 312.242188 323.519531 C 309.984375 325.566406 307.679688 327.554688 305.324219 329.488281 C 302.972656 331.417969 300.570312 333.292969 298.125 335.109375 C 295.679688 336.921875 293.191406 338.675781 290.660156 340.367188 C 288.128906 342.0625 285.554688 343.691406 282.941406 345.257812 C 280.332031 346.824219 277.683594 348.324219 274.996094 349.761719 C 272.3125 351.195312 269.59375 352.566406 266.839844 353.867188 C 264.085938 355.171875 261.304688 356.40625 258.488281 357.570312 C 255.675781 358.734375 252.835938 359.832031 249.96875 360.859375 C 247.101562 361.882812 244.210938 362.839844 241.296875 363.722656 C 238.382812 364.609375 235.449219 365.421875 232.496094 366.160156 C 229.539062 366.902344 226.570312 367.570312 223.582031 368.164062 C 220.597656 368.757812 217.597656 369.277344 214.585938 369.726562 C 211.574219 370.171875 208.550781 370.542969 205.519531 370.84375 C 202.492188 371.140625 199.453125 371.367188 196.414062 371.515625 C 193.371094 371.664062 190.328125 371.738281 187.28125 371.738281 C 184.238281 371.738281 181.195312 371.664062 178.152344 371.515625 C 175.109375 371.367188 172.074219 371.140625 169.042969 370.84375 C 166.015625 370.542969 162.992188 370.171875 159.980469 369.726562 C 156.96875 369.277344 153.96875 368.757812 150.980469 368.164062 C 147.996094 367.570312 145.023438 366.902344 142.070312 366.160156 C 139.117188 365.421875 136.183594 364.609375 133.269531 363.722656 C 130.355469 362.839844 127.464844 361.882812 124.597656 360.859375 C 121.730469 359.832031 118.890625 358.734375 116.074219 357.570312 C 113.261719 356.40625 110.480469 355.171875 107.726562 353.867188 C 104.972656 352.566406 102.253906 351.195312 99.570312 349.761719 C 96.882812 348.324219 94.234375 346.824219 91.621094 345.257812 C 89.011719 343.691406 86.4375 342.0625 83.90625 340.367188 C 81.375 338.675781 78.886719 336.921875 76.4375 335.109375 C 73.992188 333.292969 71.59375 331.417969 69.238281 329.488281 C 66.886719 327.554688 64.578125 325.566406 62.324219 323.519531 C 60.066406 321.472656 57.863281 319.375 55.710938 317.21875 C 53.554688 315.066406 51.457031 312.859375 49.410156 310.601562 C 47.367188 308.34375 45.378906 306.039062 43.445312 303.683594 C 41.515625 301.328125 39.640625 298.929688 37.828125 296.480469 C 36.011719 294.035156 34.261719 291.542969 32.570312 289.011719 C 30.875 286.480469 29.25 283.90625 27.683594 281.292969 C 26.117188 278.679688 24.617188 276.03125 23.179688 273.34375 C 21.746094 270.65625 20.375 267.9375 19.074219 265.183594 C 17.773438 262.429688 16.539062 259.644531 15.375 256.832031 C 14.207031 254.015625 13.113281 251.175781 12.085938 248.304688 C 11.0625 245.4375 10.105469 242.546875 9.222656 239.628906 C 8.339844 236.714844 7.527344 233.78125 6.785156 230.824219 C 6.046875 227.871094 5.378906 224.898438 4.785156 221.910156 C 4.191406 218.921875 3.671875 215.921875 3.222656 212.910156 C 2.777344 209.894531 2.402344 206.875 2.105469 203.839844 C 1.808594 200.808594 1.582031 197.773438 1.433594 194.730469 C 1.285156 191.6875 1.210938 188.640625 1.210938 185.597656 C 1.210938 182.550781 1.285156 179.503906 1.433594 176.460938 C 1.582031 173.417969 1.808594 170.382812 2.105469 167.351562 C 2.402344 164.320312 2.777344 161.296875 3.222656 158.285156 C 3.671875 155.269531 4.191406 152.269531 4.785156 149.28125 C 5.378906 146.292969 6.046875 143.320312 6.785156 140.367188 C 7.527344 137.410156 8.339844 134.476562 9.222656 131.5625 C 10.105469 128.644531 11.0625 125.753906 12.085938 122.886719 C 13.113281 120.019531 14.207031 117.175781 15.375 114.363281 C 16.539062 111.546875 17.773438 108.761719 19.074219 106.007812 C 20.375 103.253906 21.746094 100.535156 23.179688 97.847656 C 24.617188 95.160156 26.117188 92.511719 27.683594 89.898438 C 29.25 87.285156 30.875 84.714844 32.570312 82.179688 C 34.261719 79.648438 36.011719 77.15625 37.828125 74.710938 C 39.640625 72.265625 41.515625 69.863281 43.445312 67.507812 C 45.378906 65.152344 47.367188 62.847656 49.410156 60.589844 C 51.457031 58.332031 53.554688 56.125 55.710938 53.972656 C 57.863281 51.820312 60.066406 49.71875 62.324219 47.671875 C 64.578125 45.628906 66.886719 43.636719 69.238281 41.707031 C 71.59375 39.773438 73.992188 37.898438 76.4375 36.085938 C 78.886719 34.269531 81.375 32.515625 83.90625 30.824219 C 86.4375 29.132812 89.011719 27.5 91.621094 25.9375 C 94.234375 24.371094 96.882812 22.867188 99.570312 21.433594 C 102.253906 19.996094 104.972656 18.625 107.726562 17.324219 C 110.480469 16.023438 113.261719 14.789062 116.074219 13.621094 C 118.890625 12.457031 121.730469 11.359375 124.597656 10.332031 C 127.464844 9.308594 130.355469 8.351562 133.269531 7.46875 C 136.183594 6.582031 139.117188 5.769531 142.070312 5.03125 C 145.023438 4.289062 147.996094 3.625 150.980469 3.03125 C 153.96875 2.433594 156.96875 1.914062 159.980469 1.46875 C 162.992188 1.019531 166.015625 0.648438 169.042969 0.347656 C 172.074219 0.0507812 175.109375 -0.171875 178.152344 -0.324219 C 181.195312 -0.472656 184.238281 -0.546875 187.28125 -0.546875 C 190.328125 -0.546875 193.371094 -0.472656 196.414062 -0.324219 C 199.453125 -0.171875 202.492188 0.0507812 205.519531 0.347656 C 208.550781 0.648438 211.574219 1.019531 214.585938 1.46875 C 217.597656 1.914062 220.597656 2.433594 223.582031 3.03125 C 226.570312 3.625 229.539062 4.289062 232.496094 5.03125 C 235.449219 5.769531 238.382812 6.582031 241.296875 7.46875 C 244.210938 8.351562 247.101562 9.308594 249.96875 10.332031 C 252.835938 11.359375 255.675781 12.457031 258.488281 13.621094 C 261.304688 14.789062 264.085938 16.023438 266.839844 17.324219 C 269.589844 18.625 272.3125 19.996094 274.996094 21.433594 C 277.683594 22.867188 280.332031 24.371094 282.941406 25.9375 C 285.554688 27.5 288.128906 29.132812 290.660156 30.824219 C 293.191406 32.515625 295.679688 34.269531 298.125 36.085938 C 300.570312 37.898438 302.972656 39.773438 305.324219 41.707031 C 307.679688 43.636719 309.984375 45.628906 312.242188 47.671875 C 314.496094 49.71875 316.703125 51.820312 318.855469 53.972656 C 321.007812 56.125 323.109375 58.332031 325.152344 60.589844 C 327.199219 62.847656 329.1875 65.152344 331.117188 67.507812 C 333.050781 69.863281 334.921875 72.265625 336.738281 74.710938 C 338.550781 77.15625 340.304688 79.648438 341.996094 82.179688 C 343.6875 84.714844 345.316406 87.285156 346.882812 89.898438 C 348.449219 92.511719 349.949219 95.160156 351.382812 97.847656 C 352.820312 100.535156 354.1875 103.253906 355.492188 106.007812 C 356.792969 108.761719 358.027344 111.546875 359.191406 114.363281 C 360.355469 117.175781 361.453125 120.019531 362.476562 122.886719 C 363.503906 125.753906 364.460938 128.644531 365.34375 131.5625 C 366.226562 134.476562 367.039062 137.410156 367.777344 140.367188 C 368.519531 143.320312 369.1875 146.292969 369.78125 149.28125 C 370.375 152.269531 370.894531 155.269531 371.339844 158.285156 C 371.789062 161.296875 372.160156 164.320312 372.460938 167.351562 C 372.757812 170.382812 372.980469 173.417969 373.132812 176.460938 C 373.28125 179.503906 373.355469 182.550781 373.355469 185.597656 Z M 373.355469 185.597656 " fill-opacity="1" fill-rule="nonzero"/></g><path fill="#ffffff" d="M 122.914062 195.785156 C 115.597656 214.640625 116.957031 236.59375 121.15625 256.15625 C 127.519531 285.804688 140.472656 310.007812 140.472656 310.007812 C 141.007812 311.011719 140.628906 312.261719 139.628906 312.796875 C 138.625 313.332031 137.378906 312.953125 136.839844 311.953125 C 136.839844 311.953125 123.621094 287.265625 117.128906 257.023438 C 112.761719 236.671875 111.46875 213.839844 119.097656 194.230469 C 119.113281 194.199219 119.125 194.167969 119.140625 194.136719 C 119.140625 194.136719 121.945312 187.859375 128.585938 185.886719 C 131.382812 185.054688 134.871094 184.957031 139.132812 186.5 C 139.4375 186.609375 139.714844 186.792969 139.9375 187.03125 C 140.144531 187.257812 140.949219 188.554688 142.082031 190.6875 C 146.066406 198.1875 155.316406 217.046875 160.128906 230.800781 C 162.011719 236.1875 163.203125 240.832031 163.25 243.8125 C 163.277344 245.617188 162.867188 246.960938 162.214844 247.804688 C 162.152344 247.890625 162.082031 247.96875 162.007812 248.039062 C 161.425781 248.789062 160.125 250.148438 157.9375 250.675781 C 156.355469 251.054688 154.253906 251.023438 151.578125 249.777344 C 146.136719 247.25 137.566406 239.035156 125.210938 216.480469 C 124.664062 215.484375 125.03125 214.230469 126.027344 213.683594 C 127.023438 213.140625 128.277344 213.503906 128.824219 214.503906 C 140.441406 235.707031 148.199219 243.664062 153.3125 246.042969 C 154.863281 246.761719 156.0625 246.890625 156.976562 246.667969 C 158.113281 246.394531 158.699219 245.609375 158.863281 245.367188 C 158.914062 245.289062 158.96875 245.222656 159.023438 245.152344 C 159.0625 245.03125 159.074219 244.878906 159.09375 244.707031 C 159.160156 244.164062 159.140625 243.507812 159.058594 242.757812 C 158.765625 240.074219 157.714844 236.371094 156.242188 232.160156 C 151.496094 218.601562 142.371094 200.015625 138.445312 192.617188 C 137.90625 191.597656 137.375 190.667969 137.074219 190.148438 C 134.148438 189.210938 131.726562 189.25 129.757812 189.835938 C 125.195312 191.191406 123.121094 195.34375 122.914062 195.785156 Z M 122.914062 195.785156 " fill-opacity="1" fill-rule="evenodd"/><path fill="#ffffff" d="M 165.960938 172.761719 C 159.496094 170.363281 154.648438 170.644531 151.023438 172.382812 C 147.574219 174.035156 145.277344 176.964844 143.726562 179.84375 C 141.304688 184.34375 140.695312 188.804688 140.695312 188.804688 C 140.546875 189.929688 139.507812 190.722656 138.382812 190.570312 C 137.253906 190.417969 136.464844 189.378906 136.617188 188.253906 C 136.617188 188.253906 137.304688 183.09375 140.101562 177.894531 C 142.027344 174.304688 144.949219 170.730469 149.242188 168.671875 C 153.78125 166.492188 159.910156 165.949219 168.140625 169.183594 C 168.566406 169.351562 168.925781 169.65625 169.160156 170.046875 C 169.160156 170.046875 173.472656 177.308594 176.066406 186.8125 C 176.367188 187.910156 175.71875 189.042969 174.621094 189.34375 C 173.527344 189.640625 172.394531 188.992188 172.09375 187.898438 C 170.085938 180.542969 166.992188 174.621094 165.960938 172.761719 Z M 165.960938 172.761719 " fill-opacity="1" fill-rule="evenodd"/><path fill="#ffffff" d="M 158.429688 239.34375 C 158.164062 238.234375 158.84375 237.125 159.949219 236.859375 C 161.054688 236.589844 162.167969 237.273438 162.433594 238.378906 C 162.433594 238.378906 164.230469 245.925781 168.664062 251.046875 C 171.324219 254.117188 175.007812 256.285156 179.972656 254.769531 C 180.871094 254.496094 181.527344 253.796875 182.058594 252.863281 C 182.773438 251.621094 183.234375 249.988281 183.53125 248.113281 C 185.058594 238.414062 181.957031 222.636719 178.136719 214.875 C 177.636719 213.855469 178.058594 212.617188 179.078125 212.113281 C 180.097656 211.613281 181.332031 212.035156 181.832031 213.054688 C 185.933594 221.390625 189.238281 238.339844 187.597656 248.753906 C 186.769531 254.027344 184.542969 257.675781 181.179688 258.707031 C 174.335938 260.800781 169.210938 257.972656 165.550781 253.742188 C 160.507812 247.917969 158.429688 239.34375 158.429688 239.34375 Z M 158.429688 239.34375 Z M 158.429688 239.34375 " fill-opacity="1" fill-rule="evenodd"/><path fill="#ffffff" d="M 181.355469 50.136719 C 178.4375 43.089844 175.046875 40.546875 171.65625 40.925781 C 169.152344 41.207031 166.878906 43.007812 165.203125 45.210938 C 163.492188 47.464844 162.382812 50.1875 162.488281 52.449219 C 162.488281 52.457031 162.488281 52.46875 162.488281 52.480469 L 166.019531 168.898438 C 166.054688 170.035156 165.160156 170.984375 164.023438 171.019531 C 162.890625 171.054688 161.9375 170.160156 161.90625 169.023438 C 161.90625 169.023438 158.371094 52.605469 158.375 52.636719 C 158.230469 49.558594 159.59375 45.789062 161.925781 42.71875 C 164.296875 39.589844 167.644531 37.230469 171.195312 36.832031 C 175.851562 36.3125 181.265625 39 185.253906 48.785156 C 185.308594 48.925781 185.351562 49.070312 185.375 49.21875 C 185.375 49.21875 193.074219 94.34375 191.261719 128.964844 C 191.339844 130.609375 192.308594 151.269531 191.855469 159.890625 C 191.773438 161.839844 191.976562 163.515625 192.421875 164.792969 C 192.710938 165.625 193.027344 166.28125 193.542969 166.523438 C 193.835938 166.660156 194.128906 166.4375 194.484375 166.152344 C 195.390625 165.421875 196.289062 164.085938 197.183594 162.097656 C 197.824219 159.292969 204.914062 128.246094 208.003906 117.910156 C 208.503906 115.371094 218.824219 63.082031 219.070312 62.304688 C 221.257812 55.316406 229.453125 51 236.242188 53.503906 C 240.601562 55.109375 244.578125 59.523438 245.660156 68.226562 C 245.679688 68.398438 245.679688 68.574219 245.65625 68.746094 C 245.65625 68.746094 235.558594 145.550781 229.480469 181 C 229.621094 188.511719 233.941406 193.996094 239.179688 198.976562 C 244.945312 204.453125 251.832031 209.332031 256.484375 215.152344 C 256.511719 215.183594 256.535156 215.21875 256.5625 215.253906 C 256.5625 215.253906 263.703125 225.449219 259.761719 236.351562 C 259.746094 236.398438 259.726562 236.445312 259.707031 236.492188 C 259.707031 236.492188 247.203125 264.40625 238.054688 295.953125 C 235.8125 303.417969 235.433594 310.253906 226.792969 319.703125 C 223.757812 323.023438 213.625 328.917969 200.546875 332.132812 C 181.074219 336.914062 155.164062 335.867188 137.023438 312.238281 C 136.332031 311.335938 136.5 310.039062 137.402344 309.347656 C 138.304688 308.65625 139.597656 308.824219 140.289062 309.726562 C 157.203125 331.761719 181.410156 332.589844 199.5625 328.128906 C 211.570312 325.179688 220.96875 319.96875 223.753906 316.921875 C 231.792969 308.132812 232.023438 301.710938 234.105469 294.785156 C 243.039062 263.980469 255.152344 236.59375 255.910156 234.894531 C 258.964844 226.34375 253.6875 218.34375 253.226562 217.671875 C 248.683594 212.011719 241.953125 207.292969 236.34375 201.964844 C 230.238281 196.160156 225.449219 189.648438 225.359375 180.867188 L 225.386719 180.5 C 231.246094 146.386719 240.886719 73.425781 241.539062 68.476562 C 240.683594 62.058594 238.070312 58.570312 234.820312 57.371094 C 230.128906 55.640625 224.511719 58.707031 222.996094 63.535156 C 222.75 64.328125 212.027344 118.800781 212.027344 118.800781 L 211.980469 118.996094 C 208.777344 129.652344 201.152344 163.214844 201.152344 163.214844 L 201.027344 163.59375 C 199.457031 167.144531 197.675781 169.136719 196.117188 170.007812 C 194.574219 170.867188 193.105469 170.859375 191.808594 170.261719 C 190.710938 169.75 189.6875 168.726562 188.957031 167.183594 C 188.109375 165.40625 187.609375 162.828125 187.742188 159.695312 C 188.207031 150.8125 187.144531 129.0625 187.144531 129.0625 L 187.144531 128.851562 C 188.882812 96.019531 181.929688 53.566406 181.355469 50.136719 Z M 181.355469 50.136719 " fill-opacity="1" fill-rule="evenodd"/><path fill="#ffffff" d="M 188.746094 181.640625 C 201.773438 168.347656 210.613281 170.625 210.613281 170.625 C 210.769531 170.660156 210.921875 170.714844 211.0625 170.785156 C 222.007812 176.105469 232.0625 190.523438 232.0625 190.523438 C 232.707031 191.460938 232.476562 192.742188 231.542969 193.390625 C 230.609375 194.039062 229.324219 193.808594 228.675781 192.871094 C 228.675781 192.871094 219.578125 179.660156 209.535156 174.625 C 208.359375 174.515625 201.503906 174.394531 191.441406 184.777344 C 191.277344 184.949219 191.082031 185.089844 190.867188 185.195312 C 190.867188 185.195312 173.691406 193.5625 160.585938 194.550781 C 160.453125 194.558594 160.320312 194.554688 160.1875 194.539062 C 160.140625 194.554688 159.605469 194.730469 159.296875 194.925781 C 158.394531 195.496094 157.46875 196.496094 157.023438 197.753906 C 156.464844 199.3125 156.761719 201.230469 158.636719 203.210938 C 161.042969 205.757812 165.660156 208.257812 173.625 210.425781 C 175.347656 210.671875 194.082031 213.269531 202.417969 210.109375 C 202.996094 209.886719 203.640625 209.941406 204.175781 210.246094 C 204.710938 210.554688 205.078125 211.089844 205.179688 211.699219 C 205.179688 211.699219 208.109375 228.929688 227.828125 238.183594 C 228.855469 238.667969 229.296875 239.894531 228.816406 240.921875 C 228.332031 241.953125 227.105469 242.398438 226.078125 241.914062 C 208.757812 233.785156 203.21875 220.019531 201.664062 214.628906 C 191.496094 217.085938 172.910156 214.484375 172.910156 214.484375 L 172.667969 214.433594 C 150.109375 208.332031 151.074219 198.445312 154.492188 193.875 C 155.488281 192.535156 156.761719 191.535156 157.925781 190.984375 C 158.835938 190.550781 159.714844 190.382812 160.433594 190.425781 C 171.867188 189.515625 186.449219 182.742188 188.746094 181.640625 Z M 188.746094 181.640625 " fill-opacity="1" fill-rule="evenodd"/></svg>